<svg xmlns="http://www.w3.org/2000/svg" xmlns:xlink="http://www.w3.org/1999/xlink" width="82" height="82" viewBox="0 0 82 82">
  <defs>
    <clipPath id="clip-path">
      <rect id="Rectángulo_15" data-name="Rectángulo 15" width="49.769" height="34.202" fill="#0f3ab1"/>
    </clipPath>
    <clipPath id="clip-INDUSTRIAL">
      <rect width="82" height="82"/>
    </clipPath>
  </defs>
  <g id="INDUSTRIAL" clip-path="url(#clip-INDUSTRIAL)">
    <rect width="82" height="82" fill="#fff"/>
    <g id="Grupo_22" data-name="Grupo 22" transform="translate(-770 -3348)">
      <circle id="strock" cx="41" cy="41" r="41" transform="translate(770 3348)" fill="#f2f2f2"/>
      <circle id="btn" cx="31" cy="31" r="31" transform="translate(780 3358)" fill="#fff"/>
      <g id="Grupo_5" data-name="Grupo 5" transform="translate(784 3370.703)">
        <g id="Grupo_4" data-name="Grupo 4" clip-path="url(#clip-path)">
          <path id="Trazado_32" data-name="Trazado 32" d="M202.086,288a4.708,4.708,0,1,1,4.708-4.708A4.714,4.714,0,0,1,202.086,288m0-7.871a3.163,3.163,0,1,0,3.163,3.163,3.167,3.167,0,0,0-3.163-3.163" transform="translate(-179.817 -253.798)" fill="#0f3ab1"/>
          <path id="Trazado_33" data-name="Trazado 33" d="M238.261,320.535a1.071,1.071,0,1,0,1.071-1.071,1.071,1.071,0,0,0-1.071,1.071" transform="translate(-217.062 -291.04)" fill="#0f3ab1"/>
          <path id="Trazado_34" data-name="Trazado 34" d="M132.736,77.247h-2.688a4.536,4.536,0,0,1-4.531-4.531V56.626a5.986,5.986,0,0,1,5.979-5.979h6.6a18.2,18.2,0,0,1,8.047,1.88C151.92,55.392,158.8,60.037,158.8,65.9V69.85a3.268,3.268,0,0,1-3.264,3.264l-13.031,0h0a.772.772,0,0,1-.681-.407,5.852,5.852,0,0,0-5.63-3.19.772.772,0,1,1,0-1.545,7.363,7.363,0,0,1,6.76,3.6l12.582,0a1.721,1.721,0,0,0,1.72-1.719V65.9c0-5.337-7.393-9.8-11.8-11.987a16.642,16.642,0,0,0-7.361-1.719h-6.6a4.439,4.439,0,0,0-4.434,4.434v16.09a2.99,2.99,0,0,0,2.986,2.986h2.688a.772.772,0,0,1,0,1.545" transform="translate(-114.349 -46.141)" fill="#0f3ab1"/>
          <path id="Trazado_35" data-name="Trazado 35" d="M153.321,175.306H126.288a.772.772,0,1,1,0-1.545h27.032a.772.772,0,1,1,0,1.545" transform="translate(-114.349 -158.301)" fill="#0f3ab1"/>
          <path id="Trazado_36" data-name="Trazado 36" d="M9.184,18.887a.772.772,0,0,1-.772-.772v-7.9L.736,3.814A2.181,2.181,0,0,1,.659.618,2.183,2.183,0,0,1,3.651.569l7.181,5.968a.772.772,0,1,1-.987,1.188L2.637,1.734a.647.647,0,0,0-.9-.009.636.636,0,0,0,.015.926L9.679,9.259a.773.773,0,0,1,.278.593v8.262a.772.772,0,0,1-.772.772" transform="translate(0 0)" fill="#0f3ab1"/>
          <path id="Trazado_37" data-name="Trazado 37" d="M335.2,332.364H314.927a.772.772,0,0,1-.772-.772v-1.445a2.869,2.869,0,0,1,2.866-2.866h16.086a2.869,2.869,0,0,1,2.866,2.866v1.445a.772.772,0,0,1-.772.772m-19.5-1.545h18.729v-.672a1.323,1.323,0,0,0-1.322-1.322H317.021a1.323,1.323,0,0,0-1.322,1.322Z" transform="translate(-286.204 -298.161)" fill="#0f3ab1"/>
          <path id="Trazado_38" data-name="Trazado 38" d="M462.257,288.227a.772.772,0,0,1-.772-.772V285.6a.772.772,0,1,1,1.545,0v1.859a.772.772,0,0,1-.772.772" transform="translate(-420.425 -259.482)" fill="#0f3ab1"/>
          <path id="Trazado_39" data-name="Trazado 39" d="M175.357,131.451h-.969a.772.772,0,1,1,0-1.545h.969a.772.772,0,1,1,0,1.545" transform="translate(-158.168 -118.348)" fill="#0f3ab1"/>
          <path id="Trazado_40" data-name="Trazado 40" d="M218.292,131.451h-.969a.772.772,0,0,1,0-1.545h.969a.772.772,0,0,1,0,1.545" transform="translate(-197.283 -118.348)" fill="#0f3ab1"/>
        </g>
      </g>
    </g>
  </g>
</svg>
