<svg xmlns="http://www.w3.org/2000/svg" xmlns:xlink="http://www.w3.org/1999/xlink" width="82" height="82" viewBox="0 0 82 82">
  <defs>
    <clipPath id="clip-path">
      <rect id="Rectángulo_4" data-name="Rectángulo 4" width="36.336" height="43.266" fill="#0f3ab1"/>
    </clipPath>
    <clipPath id="clip-INSTITUCIONAL">
      <rect width="82" height="82"/>
    </clipPath>
  </defs>
  <g id="INSTITUCIONAL" clip-path="url(#clip-INSTITUCIONAL)">
    <rect width="82" height="82" fill="#fff"/>
    <g id="Grupo_20" data-name="Grupo 20" transform="translate(-388 -3348)">
      <circle id="strock" cx="41" cy="41" r="41" transform="translate(388 3348)" fill="#f2f2f2"/>
      <circle id="btn" cx="31" cy="31" r="31" transform="translate(398 3358)" fill="#fff"/>
      <g id="Grupo_1" data-name="Grupo 1" transform="translate(409.328 3369.13)">
        <g id="Grupo_1-2" data-name="Grupo 1" clip-path="url(#clip-path)">
          <path id="Trazado_1" data-name="Trazado 1" d="M233.009,113.492a.739.739,0,0,1-.728-.876l1.816-9.708a.74.74,0,0,1,1.454.272l-1.816,9.708a.74.74,0,0,1-.726.6" transform="translate(-212.48 -93.589)" fill="#0f3ab1"/>
          <path id="Trazado_2" data-name="Trazado 2" d="M208.106,68.765a2.12,2.12,0,0,1-.389-.036L200.6,67.4a2.091,2.091,0,0,1-1.669-2.437l.2-1.086a.739.739,0,0,1,.863-.591l9.769,1.827a.74.74,0,0,1,.591.863l-.2,1.086a2.091,2.091,0,0,1-2.049,1.706m-7.652-3.892-.067.358a.611.611,0,0,0,.487.712l7.116,1.331a.609.609,0,0,0,.712-.487l.067-.358Z" transform="translate(-181.952 -57.88)" fill="#0f3ab1"/>
          <path id="Trazado_3" data-name="Trazado 3" d="M52.08,328.836a.739.739,0,0,1-.72-.912l3.627-15.191a.74.74,0,0,1,1.458.132l.812,15a.74.74,0,0,1-1.477.08l-.537-9.911L52.8,328.268a.74.74,0,0,1-.719.568" transform="translate(-46.965 -285.57)" fill="#0f3ab1"/>
          <path id="Trazado_5" data-name="Trazado 5" d="M78.573,154.046a2.968,2.968,0,0,1-2-.773l-2.06-1.877,1-1.093,2.059,1.877a1.524,1.524,0,0,0,1.829.145l3.06-1.974c1.33-.821,1.158-1.557.775-2.231l-.042-.074-3.845,2.233a.739.739,0,0,1-.938-.164l-2.983-3.551c-.01-.011-.019-.023-.028-.035a2.1,2.1,0,0,0-1.689-.829H67.454v-1.479h6.253a3.588,3.588,0,0,1,2.862,1.408l2.569,3.058,3.953-2.3a.74.74,0,0,1,1.015.274l.411.725c.915,1.613.451,3.148-1.273,4.212L80.2,153.567a2.993,2.993,0,0,1-1.624.479" transform="translate(-61.707 -131.932)" fill="#0f3ab1"/>
          <path id="Trazado_6" data-name="Trazado 6" d="M3.509,161.339a.736.736,0,0,1-.348-.088l-1.107-.593-.044-.025a4.241,4.241,0,0,1-1.915-2.785,5.06,5.06,0,0,1-.042-1.715C.3,154.255.9,149.7,1.2,147.939a4.34,4.34,0,0,1,4.551-3.72H12a3.588,3.588,0,0,1,2.862,1.408l2.569,3.059,3.953-2.3a.74.74,0,0,1,1.015.274l.411.725c.915,1.613.451,3.148-1.273,4.212l-3.048,1.966a2.987,2.987,0,0,1-3.627-.294L12.8,151.4a.74.74,0,1,1,1-1.093l2.059,1.877a1.524,1.524,0,0,0,1.829.145l3.06-1.974c1.33-.821,1.158-1.557.775-2.231l-.042-.074-3.845,2.233a.738.738,0,0,1-.938-.164l-2.983-3.551c-.01-.011-.019-.023-.027-.035A2.1,2.1,0,0,0,12,145.7H5.747a2.869,2.869,0,0,0-3.092,2.49c-.3,1.731-.892,6.266-1.135,8.135a3.613,3.613,0,0,0,.022,1.218,2.758,2.758,0,0,0,1.234,1.826l1.083.58a.74.74,0,0,1-.35,1.391" transform="translate(0 -131.932)" fill="#0f3ab1"/>
          <path id="Trazado_7" data-name="Trazado 7" d="M139.839,214.094h-.023a.74.74,0,0,1-.716-.762l.8-25.664a.74.74,0,0,1,.739-.717h.024a.74.74,0,0,1,.716.762l-.8,25.664a.74.74,0,0,1-.739.717" transform="translate(-127.248 -171.023)" fill="#0f3ab1"/>
          <path id="Trazado_8" data-name="Trazado 8" d="M21.461,214.092a.719.719,0,0,1-.083,0,.739.739,0,0,1-.653-.817l1.733-15.531.271-10.071a.74.74,0,0,1,1.478.04l-.272,10.1a.578.578,0,0,1,0,.062l-1.737,15.562a.739.739,0,0,1-.734.658" transform="translate(-18.955 -171.022)" fill="#0f3ab1"/>
          <path id="Trazado_9" data-name="Trazado 9" d="M66.649,32.46a3.532,3.532,0,0,1-3.528-3.528v-1.95a3.528,3.528,0,0,1,7.056,0v1.95a3.532,3.532,0,0,1-3.528,3.528m0-7.527A2.051,2.051,0,0,0,64.6,26.982v1.95a2.049,2.049,0,1,0,4.1,0v-1.95a2.051,2.051,0,0,0-2.049-2.049" transform="translate(-57.743 -21.456)" fill="#0f3ab1"/>
          <path id="Trazado_10" data-name="Trazado 10" d="M154.86,31.315H135.221a.74.74,0,1,1,0-1.479h18.9V1.479h-23.01a.74.74,0,1,1,0-1.479H154.86a.74.74,0,0,1,.74.74V30.576a.74.74,0,0,1-.74.74" transform="translate(-119.264)" fill="#0f3ab1"/>
          <path id="Trazado_11" data-name="Trazado 11" d="M217.965,41.232a.74.74,0,0,1-.74-.74V27.523H202.519a.74.74,0,1,1,0-1.479h15.447a.74.74,0,0,1,.74.74V40.492a.74.74,0,0,1-.74.74" transform="translate(-184.588 -23.825)" fill="#0f3ab1"/>
          <path id="Trazado_12" data-name="Trazado 12" d="M266.682,237.107a.74.74,0,0,1-.523-1.263l6.928-6.928a.74.74,0,0,1,1.046,1.046l-6.928,6.928a.737.737,0,0,1-.523.217" transform="translate(-243.285 -209.215)" fill="#0f3ab1"/>
          <path id="Trazado_13" data-name="Trazado 13" d="M324.865,273.434a.74.74,0,0,1-.523-1.263l2.528-2.528a.74.74,0,0,1,1.046,1.046l-2.528,2.528a.737.737,0,0,1-.523.217" transform="translate(-296.512 -246.473)" fill="#0f3ab1"/>
        </g>
      </g>
    </g>
  </g>
</svg>
