<svg xmlns="http://www.w3.org/2000/svg" width="96" height="40" viewBox="0 0 96 40">
  <g id="socials_" data-name="socials " transform="translate(-900.75 -7387.5)">
    <g id="instagram" transform="translate(-57)">
      <circle id="btn" cx="20" cy="20" r="20" transform="translate(1013.75 7387.5)" fill="#f2f2f2"/>
      <path id="icon" d="M1030.619,7417.015a5.637,5.637,0,0,1-5.635-5.635v-6.761a5.635,5.635,0,0,1,5.635-5.634h6.761a5.634,5.634,0,0,1,5.635,5.634v6.761a5.635,5.635,0,0,1-5.635,5.635Zm-3.944-12.4v6.761a3.95,3.95,0,0,0,3.944,3.944h6.761a3.949,3.949,0,0,0,3.944-3.944v-6.761a3.949,3.949,0,0,0-3.944-3.944h-6.761A3.95,3.95,0,0,0,1026.675,7404.62Zm2.818,3.38a4.507,4.507,0,1,1,4.507,4.506A4.507,4.507,0,0,1,1029.493,7408Zm1.69,0a2.816,2.816,0,1,0,2.816-2.816A2.82,2.82,0,0,0,1031.183,7408Zm7.066-4.851a.6.6,0,1,1,.6.6A.6.6,0,0,1,1038.249,7403.149Z" fill="#222"/>
    </g>
    <g id="facebook" transform="translate(-57)">
      <circle id="btn-2" data-name="btn" cx="20" cy="20" r="20" transform="translate(957.75 7387.5)" fill="#f2f2f2"/>
      <path id="facebook-2" data-name="facebook" d="M984.135,7399.992H972.888a1.881,1.881,0,0,0-1.875,1.876v11.26a1.88,1.88,0,0,0,1.875,1.875h5.688v-5.382h-1.8v-2.345h1.8V7406.1a3.106,3.106,0,0,1,3.041-3.229h1.656v2.648h-1.481c-.388,0-.5.222-.5.53v1.226h1.982v2.345H981.29V7415h2.845a1.88,1.88,0,0,0,1.874-1.875v-11.26A1.881,1.881,0,0,0,984.135,7399.992Z" fill="#222"/>
    </g>
  </g>
</svg>
